<svg xmlns="http://www.w3.org/2000/svg" xmlns:xlink="http://www.w3.org/1999/xlink" version="1.1" x="0px" y="0px" viewBox="0 0 100 125" style="enable-background:new 0 0 100 100;" xml:space="preserve"> <g> <path d="M87.4,14.9c0,0-10.1-9.8-37.9-9.8S11.6,15,11.6,15c-0.6,3.8-0.9,7.8-0.9,11.8c0,29.5,15.7,55.3,38.8,68.1   C72.6,82,88.3,56.3,88.3,26.7C88.3,22.7,88,18.8,87.4,14.9z M49.498,93.753C26.169,80.585,11.7,54.985,11.7,26.8   c0-3.87,0.28-7.666,0.833-11.291C14.191,14.108,24.765,6.1,49.5,6.1c24.722,0,35.299,7.918,36.966,9.311   C87.027,19.172,87.3,22.869,87.3,26.7C87.3,54.845,72.829,80.483,49.498,93.753z"/> <path d="M49.5,8.167c-25.901,0-35.311,9.224-35.311,9.224c-0.559,3.54-0.839,7.267-0.839,10.994   c0,27.485,14.628,51.523,36.15,63.449C71.022,79.814,85.65,55.87,85.65,28.291c0-3.727-0.28-7.36-0.839-10.994   C84.811,17.297,75.401,8.167,49.5,8.167z M49.499,91.26C27.502,78.951,13.85,54.886,13.85,28.385c0-3.683,0.271-7.297,0.805-10.743   c1.16-1.019,10.999-8.975,34.845-8.975c23.83,0,33.672,7.865,34.844,8.883c0.542,3.581,0.806,7.097,0.806,10.742   C85.15,54.755,71.497,78.856,49.499,91.26z"/> <path d="M58.717,12.462v0.063c15.92,0.706,21.795,7.613,21.795,7.613c0.387,3.054,0.58,6.108,0.58,9.241   c0,8.214-1.276,16.04-3.581,23.177c3.963-7.555,6.23-16.319,6.23-25.668c0-2.671-0.194-5.276-0.581-7.881   C83.16,19.007,76.646,12.462,58.717,12.462z"/> </g> <g transform="scale(0.5) translate(50,40)"> <path d="M97.591,48.998l2.303-22.238c0.501-4.849-2.707-9.917-7.304-11.539L71.205,7.679c-1.186-0.417-2.49-0.629-3.881-0.629  c-3.689,0-7.398,1.481-9.677,3.864l-3.995,4.174c-2.834,2.963-5.672,8.436-6.46,12.458l-1.174,5.987l-2.384-2.049  c-2.641-2.27-6.907-3.736-10.871-3.736c-0.999,0-1.946,0.097-2.815,0.288L17.78,30.711c-4.375,0.961-9.074,4.984-10.7,9.159  L0.711,56.231c-1.679,4.314-0.511,10.336,2.66,13.708L17.71,85.193c2.064,2.195,5.267,3.506,8.567,3.506c0,0,0,0,0.001,0  c1.786,0,3.503-0.393,4.967-1.135l11.133-5.646c3.654-1.853,8.157-6.059,10.253-9.575l7.035-11.8l10.229,2.666  c1.474,0.384,3.277,0.587,5.217,0.587c3.264,0,6.485-0.546,8.839-1.497l5.218-2.109C93.42,58.474,97.118,53.558,97.591,48.998z   M26.278,85.909c-1.131,0-2.274-0.21-3.337-0.595c0.105,0.008,0.211,0.019,0.317,0.019c1.067,0,2.063-0.396,2.898-1.115  c-0.066,0.509-0.008,0.938,0.188,1.263c0.083,0.137,0.214,0.283,0.399,0.404C26.588,85.893,26.434,85.909,26.278,85.909z   M66.533,9.878c-1.303,0.414-2.383,1.284-3.084,2.489c-0.074-0.395-0.193-0.733-0.391-0.968c-0.192-0.229-0.441-0.37-0.728-0.421  C63.629,10.361,65.089,9.981,66.533,9.878z M90.182,55.386c0.033,0.611-0.786,1.315-2.191,1.884l-5.219,2.109  c-0.211,0.085-0.437,0.165-0.666,0.242l7.992-4.521C90.144,55.195,90.177,55.29,90.182,55.386z M26.962,85.108  c-0.102-0.169-0.114-0.431-0.085-0.73l16.952-9.589c-0.156,0.279-0.265,0.528-0.316,0.731c-0.055,0.221-0.049,0.393,0.015,0.507  c0.018,0.031,0.049,0.048,0.076,0.071L27.268,85.34C27.135,85.289,27.027,85.216,26.962,85.108z M23.257,84.611  c-1.141,0-2.296-0.561-3.251-1.577L5.667,67.78c-2.367-2.517-3.273-7.186-2.02-10.405l6.37-16.361  c0.698-1.794,1.974-2.824,3.5-2.824c1.021,0,2.06,0.468,3.001,1.354l17.436,16.411c2.497,2.351,3.225,6.729,1.621,9.761  l-8.667,16.388C26.066,83.697,24.735,84.611,23.257,84.611z M15.637,35.825c0.268-0.972,1.27-1.695,2.82-2.037l12.168-2.674  c0.647-0.142,1.367-0.214,2.139-0.214c3.204,0,6.747,1.195,8.817,2.974l1.314,1.129l-0.036,0.021l-0.025,0.129l0.142-0.081  l0.829,0.713l-1.231,0.696l-0.025,0.13l1.337-0.757l0.83,0.713l-2.428,1.373l-0.025,0.129l2.534-1.433l1.386,1.191l-0.111,0.565  l-4.356,2.464l-0.025,0.129l4.356-2.464l-0.261,1.329l-4.355,2.464l-0.025,0.129l4.355-2.464l-0.26,1.329l-4.356,2.464l-0.025,0.129  l4.356-2.464l-0.261,1.33l-4.356,2.464l-0.025,0.129l4.356-2.464l-0.261,1.329l-4.355,2.464l-0.025,0.13l4.355-2.464l-0.261,1.33  l-4.355,2.464L40.26,48.28l4.355-2.464l-0.25,1.273c-0.003,0.018-0.004,0.036-0.008,0.053L40,49.608l-0.025,0.129l4.366-2.47  c-0.073,0.419-0.111,0.838-0.12,1.255c0-0.002,0-0.004,0-0.005l-4.506,2.548l-0.025,0.13l4.527-2.561  c-0.003,0.4,0.026,0.796,0.078,1.188c-0.002-0.016-0.007-0.03-0.009-0.046l-4.823,2.729c-0.005,0.041-0.014,0.083-0.018,0.125  l4.859-2.749c0.055,0.389,0.132,0.773,0.238,1.15c-0.008-0.03-0.017-0.06-0.025-0.089l-5.106,2.888  c0.001,0.037,0.003,0.075,0.005,0.112l5.128-2.901c0.095,0.337,0.209,0.667,0.343,0.988l-5.348,3.025  c0.006,0.034,0.017,0.067,0.023,0.102l5.366-3.035c0.136,0.316,0.291,0.623,0.461,0.921l-5.553,3.142  c0.01,0.032,0.021,0.064,0.032,0.097l5.571-3.151c0.174,0.297,0.36,0.587,0.566,0.861l-5.753,3.255  c0.015,0.03,0.031,0.06,0.045,0.089l5.768-3.263c0.214,0.278,0.448,0.539,0.693,0.79l-5.511,3.117  c-2.606-0.078-5.185-1.034-6.796-2.551L17.013,39.019C15.857,37.931,15.368,36.796,15.637,35.825z M62.678,14.485l-4.187,23.933  c-0.602,3.445-3.429,7.874-6.301,9.872l-2.178,1.515c-1.444,1.005-2.672,1.213-3.245,0.517c-0.432-0.525-0.531-1.525-0.277-2.815  l3.794-19.354c0.677-3.456,3.209-8.34,5.645-10.886l3.994-4.174c0.86-0.901,1.651-1.417,2.167-1.417c0.176,0,0.308,0.06,0.415,0.188  C62.662,12.049,62.993,12.679,62.678,14.485z M75.113,60.646c-0.551,0-1.077-0.024-1.59-0.061l12.813-7.247l1.393,0.394  l-12.207,6.905C75.385,60.64,75.249,60.646,75.113,60.646z M49.396,71.525l-1.311,0.741c0.043-0.104,0.085-0.205,0.11-0.294  c0.063-0.225,0.066-0.402,0.012-0.523c-0.054-0.123-0.166-0.19-0.332-0.194c-0.035-0.001-0.082,0.013-0.121,0.018l2.789-1.577  l0.104-0.174l-3.307,1.87c-0.043,0.019-0.08,0.026-0.126,0.049c-0.198,0.095-0.412,0.229-0.629,0.378l-19.13,10.822  c0.034-0.068,0.056-0.13,0.092-0.199l0.781-1.477l23.381-13.227l0.104-0.174L28.415,80.8l0.892-1.686l23.569-13.333l0.104-0.173  L29.393,78.949l0.892-1.686l23.757-13.438l0.103-0.174L30.372,77.1l0.892-1.687l23.944-13.545l0.104-0.174L31.351,75.249  l0.892-1.687l24.133-13.651l0.104-0.174L32.329,73.398l0.891-1.686l23.09-13.062l0.706,0.184l-7.091,11.895  C49.771,70.988,49.581,71.258,49.396,71.525z M46.48,74.472c0.236-0.241,0.469-0.486,0.677-0.743  c0.257-0.316,0.485-0.639,0.669-0.949c0.076-0.128,0.134-0.244,0.189-0.358l1.258-0.711c-0.517,0.727-1.134,1.471-1.814,2.208  L46.48,74.472z M58.51,40.927c0.359,2.004,1.528,3.84,3.193,5.013c-0.302-0.019-0.591-0.054-0.908-0.054  c-2.073,0-4.248,0.42-6.095,1.125C56.279,45.299,57.675,43.073,58.51,40.927z M71.836,54.941c0.007-0.125-0.061-0.259-0.205-0.396  c-0.127-0.119-0.32-0.239-0.55-0.358l6.083-3.441l1.393,0.394L71.836,54.941z M70.977,54.131c-0.016-0.008-0.026-0.016-0.043-0.023  c-0.311-0.142-0.69-0.278-1.135-0.399c-0.039-0.011-0.081-0.015-0.121-0.025l5.957-3.369l1.394,0.394L70.977,54.131z M69.529,53.652  c-0.363-0.089-0.732-0.173-1.101-0.227c-0.176-0.025-0.338-0.026-0.511-0.044l6.188-3.5l1.394,0.394L69.529,53.652z M43.248,62.163  c0.001-0.005,0-0.009,0.001-0.014l8.354-4.726l1.431,0.373l-10.59,5.99c0.148-0.215,0.286-0.43,0.403-0.642  C43.052,62.771,43.185,62.44,43.248,62.163z M45.106,58.101l1.684-0.663l-6.154,3.481c-0.125,0.104-0.246,0.216-0.369,0.323  l7.191-4.067l1.582-0.623c0.292,0.148,0.593,0.284,0.904,0.398l-7.644,4.324c-0.092,0.025-0.181,0.045-0.285,0.088  c-0.327,0.133-0.682,0.339-1.044,0.596c-0.106,0.076-0.213,0.165-0.32,0.249l-2.966,1.678c-0.013,0.016-0.025,0.032-0.038,0.048  c-0.042,0.052-0.077,0.104-0.118,0.155l2.697-1.525c-0.114,0.101-0.229,0.199-0.341,0.308c-0.354,0.343-0.691,0.715-0.993,1.099  c-0.225,0.286-0.418,0.577-0.592,0.864l-2.051,1.16C37.909,62.907,41.864,59.378,45.106,58.101z M41.434,57.989l5.396-3.053  c0.255,0.257,0.524,0.5,0.811,0.724l-3.578,2.023c-0.759,0.205-1.599,0.313-2.473,0.313C41.538,57.996,41.486,57.99,41.434,57.989z   M48.654,53.138c-0.031-0.174-0.021-0.354,0.013-0.537l10.412-5.89c0.573-0.062,1.148-0.103,1.716-0.103  c0.177,0,0.332,0.023,0.503,0.03l-12.429,7.03C48.764,53.498,48.687,53.322,48.654,53.138z M50.425,50.397l0.673-0.468l4.215-2.384  c1.094-0.385,2.297-0.658,3.517-0.807l-10.142,5.737C48.864,51.792,49.467,51.063,50.425,50.397z M65.121,54.372  c0.099,0.086,0.233,0.173,0.386,0.259l-5.059,2.861l-1.43-0.373l5.921-3.35c-0.042,0.059-0.066,0.119-0.067,0.184  C64.87,54.086,64.956,54.229,65.121,54.372z M43.229,61.496c-0.073-0.163-0.214-0.263-0.417-0.289  c-0.061-0.008-0.138,0.005-0.209,0.011l7.472-4.227c0.21,0.073,0.422,0.146,0.641,0.202l0.746,0.194l-8.2,4.639  C43.293,61.814,43.29,61.629,43.229,61.496z M47.723,55.729c0.168,0.128,0.345,0.245,0.522,0.361l-3.403,1.34  c-0.098,0.038-0.206,0.067-0.307,0.102L47.723,55.729z M49.733,54.477c-0.35-0.215-0.628-0.456-0.813-0.722l12.563-7.106  c0.611,0.03,1.185,0.1,1.72,0.208L49.733,54.477z M67.741,53.366c-0.217-0.018-0.443-0.051-0.648-0.056  c-0.422-0.011-0.811,0.008-1.142,0.054c-0.178,0.025-0.334,0.061-0.475,0.103l7.101-4.018l1.394,0.394L67.741,53.366z M58.88,57.083  l-1.431-0.373l13.6-7.693l1.394,0.394L58.88,57.083z M57.31,56.674l-1.43-0.372l13.641-7.716l1.393,0.394L57.31,56.674z   M55.74,56.266l-1.431-0.373l13.682-7.739l1.394,0.394L55.74,56.266z M54.171,55.856l-1.431-0.373l13.723-7.762l1.394,0.394  L54.171,55.856z M52.602,55.447l-1.339-0.349c-0.03-0.008-0.058-0.019-0.088-0.026l13.76-7.783l1.393,0.394L52.602,55.447z   M51.043,55.032c-0.464-0.136-0.875-0.301-1.214-0.495l13.524-7.65c0.173,0.038,0.363,0.058,0.527,0.104l0.919,0.26L51.043,55.032z   M54.647,47.806l-2.663,1.507l0.618-0.43C53.188,48.476,53.887,48.118,54.647,47.806z M48.419,51.363  c-0.416,0.63-0.587,1.275-0.475,1.901c0.021,0.116,0.057,0.228,0.096,0.338c-0.727-0.745-1.284-1.646-1.628-2.629  c0.346,0.312,0.79,0.482,1.31,0.482C47.943,51.456,48.177,51.42,48.419,51.363z M41.59,58.719c0.288,0,0.572-0.015,0.853-0.036  c-1.981,1.258-3.966,3.041-5.42,4.871c0.331-2.104-0.077-4.39-1.121-6.238C37.559,58.198,39.576,58.719,41.59,58.719z   M38.196,65.008c-0.022,0.039-0.05,0.079-0.071,0.118c-0.204,0.38-0.33,0.712-0.383,0.988c-0.025,0.129-0.031,0.243-0.025,0.347  l-2.453,1.387l0.892-1.686L38.196,65.008z M37.738,66.563c0.014,0.069,0.025,0.142,0.055,0.195c0.085,0.152,0.237,0.239,0.448,0.253  c0.21,0.013,0.481-0.046,0.807-0.187c0.325-0.141,0.673-0.348,1.026-0.603s0.709-0.558,1.052-0.89  c0.342-0.332,0.668-0.691,0.962-1.063c0.075-0.095,0.14-0.191,0.21-0.287l10.873-6.15l1.43,0.373L34.286,69.697l0.892-1.686  L37.738,66.563z M54.741,58.242l1.431,0.373L33.307,71.549l0.892-1.688L54.741,58.242z M60.588,57.528l5.025-2.843  c0.073,0.038,0.139,0.077,0.223,0.114c0.286,0.128,0.636,0.249,1.03,0.358L62.019,57.9L60.588,57.528z M67.004,55.195  c0.418,0.11,0.853,0.2,1.28,0.263c0.103,0.015,0.197,0.015,0.299,0.026l-4.995,2.825l-1.431-0.372L67.004,55.195z M68.759,55.5  c0.278,0.028,0.563,0.064,0.822,0.072c0.412,0.013,0.796-0.003,1.127-0.046c0.051-0.007,0.091-0.019,0.14-0.026l-5.689,3.219  l-1.431-0.373L68.759,55.5z M71.15,55.443c0.141-0.036,0.265-0.079,0.368-0.13c0.134-0.066,0.211-0.145,0.262-0.226l6.912-3.91  l1.394,0.394l-13.358,7.557l-1.431-0.373L71.15,55.443z M80.221,51.609l1.394,0.395l-13.317,7.533l-1.431-0.373L80.221,51.609z   M81.75,52.042l1.393,0.394l-13.276,7.51l-1.43-0.372L81.75,52.042z M83.278,52.474l1.394,0.394l-13.194,7.464  c-0.271-0.052-0.54-0.106-0.787-0.171l-0.685-0.179L83.278,52.474z M84.807,52.905L86.2,53.3l-12.855,7.271  c-0.605-0.047-1.188-0.113-1.72-0.209L84.807,52.905z M87.861,53.771c0.483,0.14,0.9,0.302,1.243,0.479l-10.995,6.22  c-0.775,0.09-1.574,0.144-2.377,0.163L87.861,53.771z M68.271,10.317c0.625,0,1.259,0.112,1.885,0.333l21.385,7.542  c3.229,1.139,5.57,4.836,5.218,8.243l-2.302,22.238c-0.281,2.711-2.296,4.606-4.898,4.606c-0.515,0-1.041-0.075-1.564-0.223  l-23.918-6.76c-3.273-0.925-5.46-4.404-4.874-7.754l4.186-23.933C63.838,12.042,65.801,10.317,68.271,10.317z M27.382,82.796  l18.613-10.528c-0.198,0.165-0.396,0.34-0.589,0.529c-0.304,0.297-0.596,0.617-0.858,0.943c-0.237,0.293-0.443,0.589-0.618,0.877  l-17.04,9.639C26.95,83.848,27.117,83.354,27.382,82.796z M43.697,76.161c0.054,0.02,0.112,0.035,0.186,0.033  c0.172-0.006,0.396-0.073,0.669-0.209c0.272-0.136,0.568-0.327,0.869-0.556c0.266-0.203,0.536-0.444,0.799-0.696l1.026-0.581  c-1.09,1.154-2.321,2.259-3.553,3.191l-6.405,3.623l-7.468,3.787c-1.039,0.527-1.903,0.739-2.421,0.626L43.697,76.161z   M42.951,77.879c-0.684,0.477-1.36,0.906-1.997,1.229l-1.702,0.863L42.951,77.879z M81.653,59.762  c-0.982,0.295-2.101,0.527-3.287,0.678l10.845-6.135c0.402,0.22,0.684,0.461,0.837,0.709L81.653,59.762z M14.941,35.632  c-0.193,0.701-0.089,1.449,0.274,2.198c-0.557-0.233-1.127-0.362-1.698-0.362c-0.808,0-1.56,0.256-2.223,0.708  c1.136-1.421,2.631-2.698,4.213-3.592C15.245,34.899,15.047,35.247,14.941,35.632z M90.004,53.96  c1.521-0.113,2.831-0.792,3.76-1.875c-0.723,1.423-1.759,2.755-2.948,3.802c0.06-0.178,0.097-0.357,0.087-0.54  C90.874,54.834,90.561,54.366,90.004,53.96z"/><path d="M35.391,41.005c-0.313,0.088-0.547,0.233-0.699,0.42c-0.153,0.187-0.224,0.417-0.214,0.673  c0.01,0.258,0.102,0.543,0.275,0.839c0.174,0.297,0.43,0.606,0.767,0.911c0.338,0.305,0.726,0.578,1.136,0.808  c0.411,0.23,0.845,0.419,1.275,0.556c0.43,0.137,0.856,0.223,1.253,0.251c0.396,0.028,0.76-0.002,1.07-0.101  c0.31-0.097,0.534-0.25,0.676-0.445c0.141-0.193,0.2-0.428,0.179-0.687c-0.021-0.258-0.123-0.541-0.302-0.834  c-0.18-0.292-0.437-0.594-0.771-0.891c-0.333-0.296-0.712-0.56-1.111-0.783c-0.399-0.223-0.821-0.406-1.239-0.542  c-0.419-0.135-0.836-0.224-1.226-0.255C36.069,40.893,35.705,40.917,35.391,41.005z"/><path d="M28.795,57.756c-0.292,0.214-0.543,0.516-0.73,0.902c-0.188,0.387-0.295,0.821-0.33,1.277  c-0.035,0.455,0.004,0.932,0.108,1.402s0.276,0.935,0.507,1.367c0.232,0.433,0.524,0.833,0.873,1.173  c0.348,0.341,0.719,0.59,1.092,0.747c0.374,0.158,0.75,0.226,1.108,0.203c0.359-0.023,0.698-0.138,0.998-0.342  c0.301-0.204,0.561-0.499,0.758-0.884c0.197-0.386,0.314-0.824,0.355-1.287c0.041-0.464,0.005-0.951-0.1-1.434  c-0.106-0.483-0.282-0.961-0.521-1.403c-0.239-0.441-0.541-0.849-0.9-1.191c-0.357-0.341-0.737-0.586-1.118-0.737  c-0.379-0.149-0.758-0.206-1.116-0.17C29.423,57.415,29.087,57.541,28.795,57.756z"/><path d="M13.42,41.707c-0.314,0.058-0.608,0.203-0.862,0.432c-0.253,0.228-0.467,0.54-0.623,0.93c-0.156,0.39-0.24,0.822-0.259,1.27  c-0.019,0.448,0.026,0.911,0.13,1.364c0.104,0.453,0.268,0.896,0.483,1.303c0.216,0.408,0.484,0.779,0.8,1.088  c0.316,0.31,0.65,0.528,0.984,0.658c0.334,0.128,0.669,0.169,0.985,0.123c0.315-0.047,0.613-0.182,0.873-0.402  c0.26-0.22,0.483-0.525,0.647-0.914c0.166-0.39,0.257-0.826,0.281-1.281c0.024-0.456-0.019-0.929-0.125-1.394  s-0.272-0.918-0.495-1.335c-0.222-0.415-0.5-0.792-0.825-1.103c-0.325-0.31-0.667-0.524-1.006-0.645  C14.071,41.678,13.735,41.648,13.42,41.707z"/><path d="M16.538,58.692c-0.257,0.201-0.475,0.483-0.635,0.849c-0.16,0.363-0.249,0.773-0.271,1.203  c-0.022,0.43,0.02,0.88,0.123,1.323c0.102,0.444,0.264,0.883,0.478,1.292c0.216,0.408,0.484,0.786,0.801,1.108  c0.317,0.322,0.653,0.558,0.989,0.708c0.337,0.15,0.674,0.214,0.993,0.193c0.319-0.021,0.621-0.128,0.884-0.319  c0.264-0.192,0.49-0.47,0.659-0.831c0.169-0.363,0.265-0.776,0.292-1.213c0.027-0.437-0.014-0.896-0.117-1.352  c-0.104-0.455-0.269-0.906-0.491-1.323c-0.221-0.417-0.498-0.802-0.824-1.125c-0.326-0.323-0.669-0.556-1.011-0.698  c-0.341-0.144-0.68-0.198-0.998-0.165C17.092,58.374,16.795,58.492,16.538,58.692z"/><path d="M21.9,81.299c0.339,0.17,0.678,0.257,1,0.261c0.322,0.004,0.627-0.076,0.894-0.24c0.268-0.165,0.498-0.417,0.669-0.752  c0.174-0.337,0.272-0.728,0.303-1.146c0.031-0.419-0.008-0.864-0.109-1.312c-0.102-0.445-0.265-0.892-0.486-1.311  c-0.22-0.419-0.498-0.811-0.825-1.146c-0.326-0.337-0.671-0.586-1.015-0.75c-0.342-0.164-0.684-0.241-1.005-0.234  c-0.321,0.007-0.621,0.098-0.882,0.271c-0.261,0.174-0.482,0.431-0.647,0.77c-0.163,0.338-0.256,0.726-0.281,1.139  c-0.025,0.411,0.015,0.849,0.115,1.284c0.101,0.436,0.261,0.871,0.475,1.28c0.214,0.41,0.483,0.795,0.8,1.129  C21.225,80.876,21.563,81.128,21.9,81.299z"/><path d="M7.923,65.854c0.286-0.02,0.554-0.12,0.787-0.301c0.234-0.182,0.431-0.443,0.576-0.784c0.145-0.343,0.224-0.734,0.24-1.146  c0.017-0.413-0.027-0.849-0.128-1.278c-0.101-0.432-0.258-0.856-0.464-1.252c-0.206-0.396-0.461-0.76-0.759-1.066  c-0.298-0.307-0.61-0.527-0.919-0.664s-0.614-0.188-0.899-0.16c-0.285,0.029-0.549,0.14-0.777,0.328  c-0.227,0.188-0.418,0.456-0.555,0.801c-0.138,0.342-0.209,0.73-0.222,1.137c-0.012,0.406,0.034,0.831,0.134,1.253  c0.1,0.42,0.252,0.837,0.452,1.224c0.201,0.388,0.45,0.746,0.74,1.051c0.291,0.307,0.597,0.53,0.901,0.673  C7.334,65.811,7.637,65.872,7.923,65.854z"/><path d="M56.986,35.873c-0.184,0.148-0.376,0.385-0.565,0.687c-0.189,0.3-0.376,0.664-0.549,1.068  c-0.175,0.403-0.337,0.848-0.477,1.309c-0.141,0.462-0.259,0.941-0.345,1.416c-0.087,0.476-0.133,0.902-0.143,1.266  c-0.009,0.364,0.019,0.667,0.079,0.894c0.062,0.228,0.157,0.379,0.282,0.44c0.125,0.062,0.282,0.031,0.466-0.104  c0.185-0.136,0.379-0.365,0.572-0.664c0.194-0.3,0.387-0.669,0.567-1.082c0.181-0.415,0.35-0.874,0.494-1.351  c0.146-0.478,0.267-0.974,0.353-1.462c0.087-0.488,0.13-0.922,0.136-1.288c0.005-0.365-0.028-0.663-0.097-0.88  c-0.067-0.217-0.169-0.354-0.3-0.399C57.331,35.677,57.172,35.723,56.986,35.873z"/><path d="M51.155,28.765c0.101,0.025,0.229-0.029,0.381-0.173c0.152-0.145,0.314-0.368,0.477-0.647  c0.162-0.28,0.324-0.615,0.479-0.984c0.153-0.37,0.298-0.774,0.424-1.188c0.126-0.414,0.232-0.839,0.312-1.251  c0.078-0.413,0.121-0.773,0.133-1.072c0.01-0.298-0.012-0.535-0.063-0.699c-0.051-0.165-0.13-0.258-0.235-0.271  c-0.104-0.014-0.235,0.052-0.388,0.207c-0.151,0.154-0.313,0.382-0.473,0.662c-0.158,0.279-0.316,0.61-0.465,0.972  c-0.149,0.361-0.289,0.752-0.411,1.155s-0.227,0.815-0.305,1.218c-0.079,0.403-0.123,0.758-0.137,1.057  c-0.014,0.298,0.003,0.54,0.049,0.712C50.979,28.635,51.054,28.74,51.155,28.765z"/><path d="M71.186,30.462c0.231-0.352,0.395-0.769,0.466-1.236s0.045-0.941-0.062-1.399c-0.108-0.458-0.298-0.898-0.555-1.301  c-0.255-0.401-0.578-0.764-0.953-1.063c-0.376-0.301-0.804-0.538-1.269-0.689c-0.466-0.152-0.926-0.202-1.358-0.164  c-0.434,0.038-0.842,0.166-1.199,0.372c-0.359,0.206-0.67,0.49-0.911,0.839c-0.242,0.351-0.412,0.768-0.491,1.238  c-0.079,0.472-0.058,0.953,0.049,1.417c0.106,0.466,0.298,0.916,0.559,1.326c0.261,0.409,0.591,0.777,0.974,1.081  s0.818,0.541,1.292,0.688c0.473,0.147,0.937,0.192,1.372,0.146c0.435-0.047,0.84-0.183,1.194-0.397  C70.647,31.106,70.951,30.816,71.186,30.462z"/><path d="M72.9,19.286c0.226-0.333,0.383-0.729,0.451-1.177c0.068-0.447,0.042-0.903-0.063-1.346  c-0.107-0.442-0.293-0.871-0.543-1.263c-0.251-0.393-0.566-0.75-0.933-1.047c-0.366-0.298-0.784-0.537-1.237-0.694  c-0.454-0.158-0.902-0.218-1.324-0.192s-0.818,0.139-1.167,0.327c-0.35,0.188-0.65,0.454-0.885,0.784  c-0.233,0.33-0.398,0.727-0.475,1.178c-0.075,0.451-0.053,0.913,0.052,1.361c0.105,0.451,0.292,0.888,0.548,1.288  c0.254,0.4,0.577,0.762,0.951,1.063c0.373,0.301,0.798,0.54,1.26,0.694c0.461,0.154,0.913,0.208,1.337,0.174  c0.423-0.033,0.817-0.154,1.161-0.35C72.379,19.889,72.674,19.619,72.9,19.286z"/><path d="M68.472,43.069c0.365-0.232,0.678-0.543,0.918-0.918c0.241-0.374,0.409-0.812,0.483-1.302  c0.075-0.489,0.05-0.981-0.06-1.456c-0.109-0.473-0.302-0.927-0.564-1.339c-0.262-0.411-0.592-0.779-0.977-1.082  c-0.385-0.302-0.822-0.538-1.3-0.683c-0.479-0.145-0.951-0.185-1.396-0.133c-0.445,0.052-0.864,0.197-1.233,0.421  c-0.37,0.225-0.689,0.529-0.938,0.901s-0.426,0.811-0.508,1.303c-0.083,0.494-0.063,0.994,0.045,1.476  c0.108,0.482,0.303,0.946,0.57,1.365c0.266,0.419,0.604,0.795,0.997,1.1c0.392,0.305,0.84,0.54,1.326,0.681  c0.484,0.14,0.961,0.173,1.409,0.113C67.69,43.455,68.106,43.301,68.472,43.069z"/><path d="M91.479,37.973c0.316-0.212,0.584-0.498,0.786-0.845c0.201-0.347,0.336-0.754,0.387-1.208  c0.05-0.455,0.011-0.916-0.103-1.358c-0.113-0.443-0.301-0.869-0.548-1.256c-0.247-0.386-0.554-0.733-0.906-1.02  s-0.751-0.51-1.181-0.65c-0.431-0.141-0.853-0.182-1.247-0.138c-0.395,0.044-0.761,0.174-1.082,0.38s-0.597,0.486-0.805,0.831  c-0.209,0.344-0.351,0.751-0.408,1.21c-0.056,0.459-0.021,0.926,0.092,1.376s0.301,0.884,0.552,1.277  c0.252,0.394,0.564,0.747,0.925,1.035c0.359,0.289,0.765,0.513,1.202,0.649c0.437,0.136,0.861,0.171,1.258,0.12  C90.796,38.324,91.161,38.186,91.479,37.973z"/><path d="M87.806,24.321c0.112,0.436,0.298,0.858,0.543,1.243c0.246,0.385,0.553,0.732,0.903,1.019  c0.352,0.287,0.748,0.512,1.175,0.655c0.426,0.142,0.841,0.188,1.227,0.148c0.387-0.04,0.743-0.163,1.053-0.359  c0.308-0.195,0.569-0.463,0.765-0.792c0.196-0.328,0.328-0.715,0.375-1.152c0.048-0.437,0.01-0.88-0.102-1.309  c-0.112-0.428-0.295-0.843-0.537-1.221c-0.242-0.378-0.543-0.72-0.887-1.003c-0.345-0.285-0.734-0.511-1.154-0.655  c-0.421-0.146-0.832-0.198-1.217-0.166c-0.386,0.032-0.743,0.148-1.056,0.337c-0.313,0.189-0.58,0.453-0.783,0.778  c-0.203,0.326-0.342,0.714-0.396,1.153C87.661,23.436,87.696,23.886,87.806,24.321z"/><path d="M89.09,49.851c0.405-0.065,0.78-0.219,1.106-0.45c0.325-0.23,0.602-0.536,0.809-0.903c0.207-0.366,0.347-0.793,0.398-1.269  c0.053-0.475,0.014-0.954-0.102-1.412c-0.114-0.457-0.307-0.895-0.559-1.291c-0.253-0.396-0.566-0.749-0.927-1.036  c-0.36-0.288-0.769-0.511-1.209-0.644c-0.441-0.133-0.874-0.166-1.278-0.108s-0.781,0.203-1.111,0.426s-0.612,0.522-0.827,0.887  c-0.215,0.364-0.361,0.792-0.42,1.271c-0.059,0.48-0.024,0.965,0.09,1.43c0.114,0.466,0.307,0.914,0.564,1.316  c0.256,0.403,0.577,0.761,0.944,1.052c0.368,0.29,0.784,0.512,1.231,0.642C88.247,49.891,88.685,49.917,89.09,49.851z"/><polygon points="41.976,39.528 45.705,37.418 45.625,37.349 42.001,39.399 "/> </g> <metadata> Shield icon created by Shahriar Emil from The Noun Project.
Dice icon created by Cornelius Danger from The Noun Project.
</metadata></svg>
